<?xml version="1.0" encoding="utf-8"?>
<!-- Generator: Adobe Illustrator 16.0.0, SVG Export Plug-In . SVG Version: 6.00 Build 0)  -->
<!DOCTYPE svg PUBLIC "-//W3C//DTD SVG 1.1//EN" "http://www.w3.org/Graphics/SVG/1.1/DTD/svg11.dtd">
<svg version="1.1" id="レイヤー_1" xmlns:svg="http://www.w3.org/2000/svg"
	 xmlns="http://www.w3.org/2000/svg" xmlns:xlink="http://www.w3.org/1999/xlink" x="0px" y="0px" width="34.016px"
	 height="34.016px" viewBox="0 0 34.016 34.016" enable-background="new 0 0 34.016 34.016" xml:space="preserve">
<path fill="#FFFFFF" d="M-1220.833,834.166"/>
<circle fill="#FCFCFB" cx="16.975" cy="16.426" r="9.568"/>
<polygon fill="#DDE78F" stroke="#231815" stroke-width="0.1311" stroke-linecap="round" stroke-linejoin="round" stroke-miterlimit="10" points="
	22.762,1 18.24,5.742 22.913,7.55 "/>
<polygon fill="#2A7279" stroke="#231815" stroke-width="0.1311" stroke-linecap="round" stroke-linejoin="round" stroke-miterlimit="10" points="
	10.118,1.47 10.274,8.021 14.857,5.995 "/>
<polygon fill="#E04592" stroke="#231815" stroke-width="0.1311" stroke-linecap="round" stroke-linejoin="round" stroke-miterlimit="10" points="
	1.511,10.743 6.252,15.264 8.061,10.592 "/>
<polygon fill="#EA6254" stroke="#231815" stroke-width="0.1311" stroke-linecap="round" stroke-linejoin="round" stroke-miterlimit="10" points="
	1.981,23.387 8.531,23.232 6.505,18.648 "/>
<polygon fill="#63C3DC" stroke="#231815" stroke-width="0.1311" stroke-linecap="round" stroke-linejoin="round" stroke-miterlimit="10" points="
	11.253,31.994 15.775,27.253 11.103,25.444 "/>
<polygon fill="#E16EA5" stroke="#231815" stroke-width="0.1311" stroke-linecap="round" stroke-linejoin="round" stroke-miterlimit="10" points="
	23.897,31.525 23.74,24.974 19.158,26.999 "/>
<polygon fill="#EFEB8D" stroke="#231815" stroke-width="0.1311" stroke-linecap="round" stroke-linejoin="round" stroke-miterlimit="10" points="
	32.505,22.251 27.763,17.731 25.954,22.403 "/>
<polygon fill="#5B60A9" stroke="#231815" stroke-width="0.1311" stroke-linecap="round" stroke-linejoin="round" stroke-miterlimit="10" points="
	32.035,9.609 25.485,9.764 27.51,14.346 "/>
<line fill="none" stroke="#231815" stroke-width="0.0983" stroke-miterlimit="10" x1="15.759" y1="13.207" x2="14.558" y2="10.306"/>
<line fill="none" stroke="#231815" stroke-width="0.0983" stroke-miterlimit="10" x1="14.133" y1="14.96" x2="11.012" y2="13.666"/>
<line fill="none" stroke="#231815" stroke-width="0.0983" stroke-miterlimit="10" x1="19.902" y1="14.744" x2="22.867" y2="13.515"/>
<line fill="none" stroke="#231815" stroke-width="0.0983" stroke-miterlimit="10" x1="18.149" y1="13.117" x2="19.411" y2="10.071"/>
<line fill="none" stroke="#231815" stroke-width="0.0819" stroke-linecap="round" stroke-linejoin="round" stroke-miterlimit="10" x1="16.379" y1="13.155" x2="15.98" y2="11.147"/>
<line fill="none" stroke="#231815" stroke-width="0.0819" stroke-linecap="round" stroke-linejoin="round" stroke-miterlimit="10" x1="15.34" y1="13.613" x2="14.202" y2="11.91"/>
<line fill="none" stroke="#231815" stroke-width="0.0819" stroke-linecap="round" stroke-linejoin="round" stroke-miterlimit="10" x1="14.556" y1="14.433" x2="12.854" y2="13.296"/>
<line fill="none" stroke="#231815" stroke-width="0.0819" stroke-linecap="round" stroke-linejoin="round" stroke-miterlimit="10" x1="14.145" y1="15.492" x2="12.137" y2="15.092"/>
<line fill="none" stroke="#231815" stroke-width="0.0819" stroke-linecap="round" stroke-linejoin="round" stroke-miterlimit="10" x1="19.852" y1="15.364" x2="21.86" y2="14.963"/>
<line fill="none" stroke="#231815" stroke-width="0.0819" stroke-linecap="round" stroke-linejoin="round" stroke-miterlimit="10" x1="19.394" y1="14.324" x2="21.096" y2="13.188"/>
<line fill="none" stroke="#231815" stroke-width="0.0819" stroke-linecap="round" stroke-linejoin="round" stroke-miterlimit="10" x1="18.573" y1="13.539" x2="19.71" y2="11.837"/>
<line fill="none" stroke="#231815" stroke-width="0.0819" stroke-linecap="round" stroke-linejoin="round" stroke-miterlimit="10" x1="17.514" y1="13.129" x2="17.913" y2="11.121"/>
<text transform="matrix(1 0 0 1 9.8054 20.8665)" fill="#231815" font-family="'Arial-BoldMT'" font-size="5">sunny</text>
<text transform="matrix(1 0 0 1 9.8054 20.8665)" fill="none" stroke="#231815" stroke-width="0.1475" stroke-miterlimit="10" font-family="'Arial-BoldMT'" font-size="5">sunny</text>
<path fill="#F3EE6F" stroke="#231815" stroke-width="0.0819" stroke-linecap="round" stroke-linejoin="round" stroke-miterlimit="10" d="
	M7.439,16.425c0,0,4.707-0.046,7.004,0c0.506-2.894,4.5-2.938,5.189-0.021l6.82,0.021"/>
<line fill="none" stroke="#231815" stroke-width="0.1311" stroke-linecap="round" stroke-linejoin="round" stroke-miterlimit="10" x1="16.946" y1="12.907" x2="16.946" y2="7.789"/>
<line fill="none" stroke="#231815" stroke-width="0.1311" stroke-linecap="round" stroke-linejoin="round" stroke-miterlimit="10" x1="14.885" y1="13.871" x2="11.267" y2="10.252"/>
<line fill="none" stroke="#231815" stroke-width="0.1311" stroke-linecap="round" stroke-linejoin="round" stroke-miterlimit="10" x1="19.083" y1="13.683" x2="22.702" y2="10.064"/>
</svg>
